                                                                        S0000001
,,31HOpen CASCADE IGES processor 7.5,13HFilename.iges,                  G0000001
16HOpen CASCADE 7.5,31HOpen CASCADE IGES processor 7.5,32,308,15,308,15,G0000002
,1.,6,1HM,1,0.00001,15H20240701.161802,1.17238E-05,100.000012,6Hmiguel,,G0000003
11,0,15H20240701.161802,;                                               G0000004
     186       1       0       0       0       0       0       000000000D0000001
     186       0       0       1       0                               0D0000002
     514       2       0       0       0       0       0       000010000D0000003
     514       0       0       1       1                               0D0000004
     510       3       0       0       0       0       0       000010000D0000005
     510       0       0       1       1                               0D0000006
     128       4       0       0       0       0       0       000010000D0000007
     128       0       0      91       0                               0D0000008
     508      95       0       0       0       0       0       000010000D0000009
     508       0       0       2       1                               0D0000010
     504      97       0       0       0       0       0       000010001D0000011
     504       0       0       2       1                               0D0000012
     100      99       0       0       0       0       0       000010000D0000013
     100       0       0       1       0                               0D0000014
     502     100       0       0       0       0       0       000010000D0000015
     502       0       0       1       1                               0D0000016
     126     101       0       0       0       0       0       000010000D0000017
     126       0       0       8       0                               0D0000018
     100     109       0       0       0       0      21       000010000D0000019
     100       0       0       1       0                               0D0000020
     124     110       0       0       0       0       0       000000000D0000021
     124       0       0       1       0                               0D0000022
     100     111       0       0       0       0       0       000010000D0000023
     100       0       0       1       0                               0D0000024
     100     112       0       0       0       0      27       000010000D0000025
     100       0       0       1       0                               0D0000026
     124     113       0       0       0       0       0       000000000D0000027
     124       0       0       1       0                               0D0000028
     126     114       0       0       0       0       0       000010000D0000029
     126       0       0       8       0                               0D0000030
     126     122       0       0       0       0       0       000010000D0000031
     126       0       0       2       0                               0D0000032
     110     124       0       0       0       0       0       000010000D0000033
     110       0       0       1       0                               0D0000034
     126     125       0       0       0       0       0       000010000D0000035
     126       0       0       2       0                               0D0000036
     110     127       0       0       0       0       0       000010000D0000037
     110       0       0       1       0                               0D0000038
     510     128       0       0       0       0       0       000010000D0000039
     510       0       0       1       1                               0D0000040
     190     129       0       0       0       0       0       000010000D0000041
     190       0       0       1       1                               0D0000042
     116     130       0       0       0       0       0       000010400D0000043
     116       0       0       1       0                               0D0000044
     123     131       0       0       0       0       0       000010200D0000045
     123       0       0       1       0                               0D0000046
     123     132       0       0       0       0       0       000010200D0000047
     123       0       0       1       0                               0D0000048
     508     133       0       0       0       0       0       000010000D0000049
     508       0       0       1       1                               0D0000050
     508     134       0       0       0       0       0       000010000D0000051
     508       0       0       1       1                               0D0000052
     510     135       0       0       0       0       0       000010000D0000053
     510       0       0       1       1                               0D0000054
     190     136       0       0       0       0       0       000010000D0000055
     190       0       0       1       1                               0D0000056
     116     137       0       0       0       0       0       000010400D0000057
     116       0       0       1       0                               0D0000058
     123     138       0       0       0       0       0       000010200D0000059
     123       0       0       1       0                               0D0000060
     123     139       0       0       0       0       0       000010200D0000061
     123       0       0       1       0                               0D0000062
     508     140       0       0       0       0       0       000010000D0000063
     508       0       0       1       1                               0D0000064
     508     141       0       0       0       0       0       000010000D0000065
     508       0       0       1       1                               0D0000066
     510     142       0       0       0       0       0       000010000D0000067
     510       0       0       1       1                               0D0000068
     128     143       0       0       0       0       0       000010000D0000069
     128       0       0      91       0                               0D0000070
     508     234       0       0       0       0       0       000010000D0000071
     508       0       0       2       1                               0D0000072
     126     236       0       0       0       0       0       000010000D0000073
     126       0       0       2       0                               0D0000074
     110     238       0       0       0       0       0       000010000D0000075
     110       0       0       1       0                               0D0000076
     126     239       0       0       0       0       0       000010000D0000077
     126       0       0       2       0                               0D0000078
     110     241       0       0       0       0       0       000010000D0000079
     110       0       0       1       0                               0D0000080
186,3,1,0;                                                       0000001P0000001
514,4,5,0,39,0,53,1,67,1;                                        0000003P0000002
510,7,1,1,9;                                                     0000005P0000003
128,10,11,3,11,0,1,1,0,0,0.,0.,0.,0.,9.653679053E-02,            0000007P0000004
0.193073581,0.293277832,0.5,0.706722168,0.806926419,0.903463209, 0000007P0000005
1.,1.,1.,1.,0.,0.,0.,0.,0.,0.,0.,0.,0.,0.,0.,0.,1.,1.,1.,1.,1.,  0000007P0000006
1.,1.,1.,1.,1.,1.,1.,1.,1.,1.,1.,1.,1.,1.,1.,1.,1.,1.,1.,1.,1.,  0000007P0000007
1.,1.,1.,1.,1.,1.,1.,1.,1.,1.,1.,1.,1.,1.,1.,1.,1.,1.,1.,1.,1.,  0000007P0000008
1.,1.,1.,1.,1.,1.,1.,1.,1.,1.,1.,1.,1.,1.,1.,1.,1.,1.,1.,1.,1.,  0000007P0000009
1.,1.,1.,1.,1.,1.,1.,1.,1.,1.,1.,1.,1.,1.,1.,1.,1.,1.,1.,1.,1.,  0000007P0000010
1.,1.,1.,1.,1.,1.,1.,1.,1.,1.,1.,1.,1.,1.,1.,1.,1.,1.,1.,1.,1.,  0000007P0000011
1.,1.,1.,1.,1.,1.,1.,1.,1.,1.,1.,1.,1.,1.,1.,1.,1.,1.,1.,1.,1.,  0000007P0000012
1.,1.,1.,1.,1.,1.,1.,1.,1.,1.,1.,1.,1.,5.,0.,0.,4.84588423,0.,   0000007P0000013
3.20052636,5.194692056,0.,10.036318182,4.5415843,0.,             0000007P0000014
20.199184213,7.478103189,0.,33.566183846,15.882365707,0.,50.,    0000007P0000015
7.478103189,0.,66.433816154,4.5415843,0.,79.800815787,           0000007P0000016
5.194692056,0.,89.963681818,4.84588423,0.,96.79947364,5.,0.,     0000007P0000017
100.,4.999857955,2.856019133,0.,4.845746563,2.767987615,         0000007P0000018
3.200526359,5.194544479,2.96722798,10.036318182,4.541455277,     0000007P0000019
2.594170331,20.199184213,7.477890743,4.271521157,33.566183846,   0000007P0000020
15.881914503,9.072068067,50.000000001,7.477890743,4.271521157,   0000007P0000021
66.433816154,4.541455277,2.594170331,79.800815787,5.194544479,   0000007P0000022
2.96722798,89.963681819,4.845746563,2.767987615,96.79947364,     0000007P0000023
4.999857955,2.856019133,100.000000001,3.206504505,5.711785394,   0000007P0000024
0.,3.107669922,5.535730153,3.200526362,3.331360696,5.934193242,  0000007P0000025
10.03631818,2.912522103,5.188110974,20.199184213,4.795714312,    0000007P0000026
8.542664114,33.566183847,10.185375437,18.143332893,49.999999997, 0000007P0000027
4.795714312,8.542664114,66.433816154,2.912522103,5.188110974,    0000007P0000028
79.800815785,3.331360696,5.934193242,89.963681816,3.107669922,   0000007P0000029
5.535730153,96.799473642,3.206504505,5.711785394,99.999999997,   0000007P0000030
-0.387218797,7.316139051,0.,-0.375283492,7.090632569,            0000007P0000031
3.200526354,-0.402296482,7.601017881,10.036318185,-0.351717362,  0000007P0000032
6.64537245,20.199184215,-0.579132424,10.942168552,33.566183844,  0000007P0000033
-1.22999011,23.239519193,50.000000009,-0.579132424,10.942168552, 0000007P0000034
66.433816152,-0.351717362,6.64537245,79.800815794,-0.402296482,  0000007P0000035
7.601017881,89.963681825,-0.375283492,7.090632569,96.799473636,  0000007P0000036
-0.387218797,7.316139051,100.00000001,-4.772600889,6.409603698,  0000007P0000037
0.,-4.625494278,6.212039497,3.200526372,-4.958438385,            0000007P0000038
6.659183482,10.036318175,-4.335033854,5.821951105,20.19918421,   0000007P0000039
-7.138000387,9.586335572,33.566183851,-15.160038539,             0000007P0000040
20.359933995,49.999999981,-7.138000387,9.586335572,66.433816157, 0000007P0000041
-4.335033854,5.821951105,79.800815773,-4.958438385,6.659183482,  0000007P0000042
89.963681805,-4.625494278,6.212039497,96.799473648,-4.772600889, 0000007P0000043
6.409603698,99.999999981,-8.04654609,2.64468642,0.,-7.798526159, 0000007P0000044
2.563168842,3.200526342,-8.359865811,2.747666307,10.036318191,   0000007P0000045
-7.308813478,2.402213264,20.199184218,-12.034580394,3.955447588, 0000007P0000046
33.566183839,-25.559637538,8.400775379,50.000000026,             0000007P0000047
-12.034580394,3.955447588,66.43381615,-7.308813478,2.402213264,  0000007P0000048
79.800815806,-8.359865811,2.747666307,89.963681838,-7.798526159, 0000007P0000049
2.563168842,96.79947363,-8.04654609,2.64468642,100.000000027,    0000007P0000050
-8.046546089,-2.64468642,0.,-7.798526161,-2.563168842,           0000007P0000051
3.200526377,-8.359865809,-2.747666307,10.036318172,-7.308813477, 0000007P0000052
-2.402213264,20.199184209,-12.034580395,-3.955447588,            0000007P0000053
33.566183853,-25.559637532,-8.400775379,49.999999974,            0000007P0000054
-12.034580395,-3.955447588,66.433816158,-7.308813477,            0000007P0000055
-2.402213264,79.800815768,-8.359865809,-2.747666307,             0000007P0000056
89.963681799,-7.798526161,-2.563168842,96.799473649,             0000007P0000057
-8.046546089,-2.64468642,99.999999973,-4.77260089,-6.409603698,  0000007P0000058
0.,-4.625494277,-6.212039497,3.200526348,-4.958438386,           0000007P0000059
-6.659183482,10.036318188,-4.335033854,-5.821951105,             0000007P0000060
20.199184216,-7.138000386,-9.586335572,33.566183841,             0000007P0000061
-15.160038543,-20.359933995,50.000000018,-7.138000386,           0000007P0000062
-9.586335572,66.433816151,-4.335033854,-5.821951105,79.8008158,  0000007P0000063
-4.958438386,-6.659183482,89.963681832,-4.625494277,             0000007P0000064
-6.212039497,96.799473635,-4.77260089,-6.409603698,              0000007P0000065
100.000000019,-0.387218797,-7.316139051,0.,-0.375283493,         0000007P0000066
-7.090632569,3.200526366,-0.402296481,-7.601017882,10.036318178, 0000007P0000067
-0.351717362,-6.64537245,20.199184211,-0.579132424,              0000007P0000068
-10.942168552,33.566183849,-1.229990108,-23.239519193,           0000007P0000069
49.999999991,-0.579132424,-10.942168552,66.433816155,            0000007P0000070
-0.351717362,-6.64537245,79.800815781,-0.402296481,-7.601017882, 0000007P0000071
89.963681812,-0.375283493,-7.090632569,96.799473643,             0000007P0000072
-0.387218797,-7.316139051,99.999999991,3.206504505,-5.711785394, 0000007P0000073
0.,3.107669923,-5.535730153,3.200526358,3.331360696,             0000007P0000074
-5.934193242,10.036318183,2.912522103,-5.188110974,20.199184214, 0000007P0000075
4.795714312,-8.542664114,33.566183845,10.185375437,              0000007P0000076
-18.143332893,50.000000003,4.795714312,-8.542664114,             0000007P0000077
66.433816154,2.912522103,-5.188110974,79.800815789,3.331360696,  0000007P0000078
-5.934193242,89.963681821,3.107669923,-5.535730153,96.79947364,  0000007P0000079
3.206504505,-5.711785394,100.000000003,4.999857955,-2.856019133, 0000007P0000080
0.,4.845746563,-2.767987615,3.20052636,5.194544479,-2.96722798,  0000007P0000081
10.036318181,4.541455277,-2.594170331,20.199184213,7.477890743,  0000007P0000082
-4.271521157,33.566183846,15.881914503,-9.072068067,50.,         0000007P0000083
7.477890743,-4.271521157,66.433816154,4.541455277,-2.594170331,  0000007P0000084
79.800815787,5.194544479,-2.96722798,89.963681818,4.845746563,   0000007P0000085
-2.767987615,96.79947364,4.999857955,-2.856019133,100.,5.,       0000007P0000086
-1.224646799E-15,0.,4.84588423,-1.186899322E-15,3.20052636,      0000007P0000087
5.194692056,-1.2723326E-15,10.036318182,4.5415843,               0000007P0000088
-1.112367335E-15,20.199184213,7.478103189,-1.831607027E-15,      0000007P0000089
33.566183846,15.882365707,-3.890057665E-15,50.,7.478103189,      0000007P0000090
-1.831607027E-15,66.433816154,4.5415843,-1.112367335E-15,        0000007P0000091
79.800815787,5.194692056,-1.2723326E-15,89.963681818,4.84588423, 0000007P0000092
-1.186899322E-15,96.79947364,5.,-1.224646799E-15,100.,0.,1.,0.,  0000007P0000093
1.;                                                              0000007P0000094
508,4,0,11,1,0,1,0,31,0,11,2,1,1,0,33,0,11,3,1,1,0,35,0,11,2,0,  0000009P0000095
1,0,37;                                                          0000009P0000096
504,6,13,15,1,15,1,17,15,1,15,2,19,15,2,15,2,23,15,3,15,3,25,15, 0000011P0000097
4,15,4,29,15,3,15,4;                                             0000011P0000098
100,0.,0.,0.,5.,0.,5.,0.;                                        0000013P0000099
502,4,5.,0.,0.,5.,0.,100.,4.5,0.,0.,4.5,0.,100.;                 0000015P0000100
126,10,3,1,0,1,0,0.,0.,0.,0.,9.653679053E-02,0.193073581,        0000017P0000101
0.293277832,0.5,0.706722168,0.806926419,0.903463209,1.,1.,1.,1., 0000017P0000102
1.,1.,1.,1.,1.,1.,1.,1.,1.,1.,1.,5.,0.,0.,4.84588423,0.,         0000017P0000103
3.20052636,5.194692056,0.,10.036318182,4.5415843,0.,             0000017P0000104
20.199184213,7.478103189,0.,33.566183846,15.882365707,0.,50.,    0000017P0000105
7.478103189,0.,66.433816154,4.5415843,0.,79.800815787,           0000017P0000106
5.194692056,0.,89.963681818,4.84588423,0.,96.79947364,5.,0.,     0000017P0000107
100.,0.,1.,0.,-1.,0.;                                            0000017P0000108
100,0.,0.,0.,5.,0.,5.,0.;                                        0000019P0000109
124,1.,0.,0.,0.,0.,1.,0.,0.,0.,0.,1.,100.;                       0000021P0000110
100,0.,0.,0.,4.5,0.,4.5,0.;                                      0000023P0000111
100,0.,0.,0.,4.5,0.,4.5,0.;                                      0000025P0000112
124,1.,0.,0.,0.,0.,1.,0.,0.,0.,0.,1.,100.;                       0000027P0000113
126,10,3,1,0,1,0,0.,0.,0.,0.,9.629855431E-02,0.192597109,        0000029P0000114
0.293305456,0.5,0.706694544,0.807402891,0.903701446,1.,1.,1.,1., 0000029P0000115
1.,1.,1.,1.,1.,1.,1.,1.,1.,1.,1.,4.5,0.,0.,4.563753614,0.,       0000029P0000116
3.152346572,4.609184597,0.,10.052385579,4.013263931,0.,          0000029P0000117
20.241319343,7.290623131,0.,33.509383921,15.66825351,0.,50.,     0000029P0000118
7.290623131,0.,66.490616079,4.013263931,0.,79.758680657,         0000029P0000119
4.609184598,0.,89.947614421,4.563753614,0.,96.847653428,4.5,0.,  0000029P0000120
100.,0.,1.,0.,-1.,0.;                                            0000029P0000121
126,1,1,1,0,1,0,0.,0.,6.283185307,6.283185307,1.,1.,0.,1.,0.,0., 0000031P0000122
0.,0.,0.,6.283185307,0.,0.,1.;                                   0000031P0000123
110,0.,0.,0.,1.,0.,0.;                                           0000033P0000124
126,1,1,1,0,1,0,0.,0.,6.283185307,6.283185307,1.,1.,1.,0.,0.,1., 0000035P0000125
1.,0.,0.,6.283185307,0.,0.,1.;                                   0000035P0000126
110,1.,1.,0.,0.,1.,0.;                                           0000037P0000127
510,41,2,1,49,51;                                                0000039P0000128
190,43,45,47;                                                    0000041P0000129
116,-2.734880265E-16,3.428682532E-16,0.,0;                       0000043P0000130
123,0.,0.,1.;                                                    0000045P0000131
123,1.,0.,-0.;                                                   0000047P0000132
508,1,0,11,1,1,0;                                                0000049P0000133
508,1,0,11,4,0,0;                                                0000051P0000134
510,55,2,1,63,65;                                                0000053P0000135
190,57,59,61;                                                    0000055P0000136
116,-2.734880265E-16,3.428682532E-16,100.,0;                     0000057P0000137
123,0.,0.,1.;                                                    0000059P0000138
123,1.,0.,-0.;                                                   0000061P0000139
508,1,0,11,3,1,0;                                                0000063P0000140
508,1,0,11,5,0,0;                                                0000065P0000141
510,69,1,1,71;                                                   0000067P0000142
128,10,11,3,11,0,1,1,0,0,0.,0.,0.,0.,9.629855431E-02,            0000069P0000143
0.192597109,0.293305456,0.5,0.706694544,0.807402891,0.903701446, 0000069P0000144
1.,1.,1.,1.,0.,0.,0.,0.,0.,0.,0.,0.,0.,0.,0.,0.,1.,1.,1.,1.,1.,  0000069P0000145
1.,1.,1.,1.,1.,1.,1.,1.,1.,1.,1.,1.,1.,1.,1.,1.,1.,1.,1.,1.,1.,  0000069P0000146
1.,1.,1.,1.,1.,1.,1.,1.,1.,1.,1.,1.,1.,1.,1.,1.,1.,1.,1.,1.,1.,  0000069P0000147
1.,1.,1.,1.,1.,1.,1.,1.,1.,1.,1.,1.,1.,1.,1.,1.,1.,1.,1.,1.,1.,  0000069P0000148
1.,1.,1.,1.,1.,1.,1.,1.,1.,1.,1.,1.,1.,1.,1.,1.,1.,1.,1.,1.,1.,  0000069P0000149
1.,1.,1.,1.,1.,1.,1.,1.,1.,1.,1.,1.,1.,1.,1.,1.,1.,1.,1.,1.,1.,  0000069P0000150
1.,1.,1.,1.,1.,1.,1.,1.,1.,1.,1.,1.,1.,1.,1.,1.,1.,1.,1.,1.,1.,  0000069P0000151
1.,1.,1.,1.,1.,1.,1.,1.,1.,1.,1.,1.,1.,4.5,0.,0.,4.563753614,0., 0000069P0000152
3.152346572,4.609184597,0.,10.052385579,4.013263931,0.,          0000069P0000153
20.241319343,7.290623131,0.,33.509383921,15.66825351,0.,50.,     0000069P0000154
7.290623131,0.,66.490616079,4.013263931,0.,79.758680657,         0000069P0000155
4.609184598,0.,89.947614421,4.563753614,0.,96.847653428,4.5,0.,  0000069P0000156
100.,4.499872159,2.57041722,0.,4.563623962,2.606833528,          0000069P0000157
3.152346572,4.609053655,2.63278388,10.052385579,4.013149917,     0000069P0000158
2.292391714,20.241319343,7.290416011,4.164431831,33.509383921,   0000069P0000159
15.667808389,8.949766361,50.,7.290416011,4.164431831,            0000069P0000160
66.490616079,4.013149917,2.292391714,79.758680656,4.609053655,   0000069P0000161
2.63278388,89.947614421,4.563623962,2.606833528,96.847653429,    0000069P0000162
4.499872159,2.57041722,100.,2.885854054,5.140606855,0.,          0000069P0000163
2.926739305,5.213436247,3.152346571,2.955874235,5.265334653,     0000069P0000164
10.052385579,2.573709775,4.58458046,20.241319344,4.675483182,    0000069P0000165
8.328494942,33.50938392,10.048065092,17.898740309,49.999999999,  0000069P0000166
4.675483182,8.328494942,66.490616077,2.573709775,4.58458046,     0000069P0000167
79.758680658,2.955874235,5.265334653,89.947614421,2.926739305,   0000069P0000168
5.213436247,96.847653424,2.885854054,5.140606855,99.999999998,   0000069P0000169
-0.348496917,6.584525146,0.,-0.353434237,6.677811207,            0000069P0000170
3.152346575,-0.356952583,6.744287085,10.052385577,-0.310802246,  0000069P0000171
5.872319393,20.241319343,-0.564613264,10.667842518,33.509383923, 0000069P0000172
-1.213408454,22.926224273,50.000000002,-0.564613264,             0000069P0000173
10.667842518,66.490616087,-0.310802246,5.872319393,79.758680654, 0000069P0000174
-0.356952583,6.744287085,89.94761442,-0.353434237,6.677811207,   0000069P0000175
96.84765344,-0.348496917,6.584525146,100.000000006,-4.295340801, 0000069P0000176
5.768643329,0.,-4.356194911,5.850370409,3.152346565,             0000069P0000177
-4.399559702,5.908609329,10.052385582,-3.830741401,5.144686267,  0000069P0000178
20.241319344,-6.959046888,9.346000996,33.509383916,              0000069P0000179
-14.955664131,20.085459128,49.999999996,-6.959046888,            0000069P0000180
9.346000996,66.490616064,-3.830741401,5.144686267,79.758680663,  0000069P0000181
-4.399559702,5.908609329,89.947614424,-4.356194911,5.850370409,  0000069P0000182
96.847653404,-4.295340801,5.768643329,99.999999987,-7.241891481, 0000069P0000183
2.380217777,0.,-7.344490762,2.413939442,3.152346582,-7.41760326, 0000069P0000184
2.437969582,10.052385574,-6.458582638,2.122764923,20.241319342,  0000069P0000185
-11.73286701,3.856282397,33.509383927,-25.215064799,8.287523456, 0000069P0000186
50.000000005,-11.73286701,3.856282397,66.4906161,-6.458582638,   0000069P0000187
2.122764923,79.758680647,-7.41760326,2.437969582,89.947614417,   0000069P0000188
-7.344490762,2.413939442,96.847653463,-7.241891481,2.380217777,  0000069P0000189
100.000000017,-7.241891481,-2.380217777,0.,-7.344490759,         0000069P0000190
-2.413939442,3.152346561,-7.41760326,-2.437969582,10.052385584,  0000069P0000191
-6.458582637,-2.122764923,20.241319345,-11.732867008,            0000069P0000192
-3.856282397,33.509383914,-25.215064807,-8.287523456,            0000069P0000193
49.999999995,-11.732867008,-3.856282397,66.490616058,            0000069P0000194
-6.458582637,-2.122764923,79.758680666,-7.41760326,-2.437969582, 0000069P0000195
89.947614425,-7.344490759,-2.413939442,96.847653393,             0000069P0000196
-7.241891481,-2.380217777,99.999999983,-4.295340801,             0000069P0000197
-5.768643329,0.,-4.356194913,-5.850370409,3.15234658,            0000069P0000198
-4.399559702,-5.908609329,10.052385575,-3.830741402,             0000069P0000199
-5.144686267,20.241319342,-6.959046889,-9.346000996,             0000069P0000200
33.509383926,-14.955664125,-20.085459128,50.000000003,           0000069P0000201
-6.959046889,-9.346000996,66.490616094,-3.830741402,             0000069P0000202
-5.144686267,79.75868065,-4.399559702,-5.908609329,89.947614418, 0000069P0000203
-4.356194913,-5.850370409,96.847653453,-4.295340801,             0000069P0000204
-5.768643329,100.000000011,-0.348496917,-6.584525146,0.,         0000069P0000205
-0.353434236,-6.677811208,3.152346568,-0.356952583,-6.744287085, 0000069P0000206
10.052385581,-0.310802246,-5.872319393,20.241319344,             0000069P0000207
-0.564613263,-10.667842518,33.509383919,-1.213408457,            0000069P0000208
-22.926224272,49.999999999,-0.564613263,-10.667842518,           0000069P0000209
66.490616072,-0.310802246,-5.872319393,79.75868066,-0.356952583, 0000069P0000210
-6.744287085,89.947614423,-0.353434236,-6.677811208,             0000069P0000211
96.847653416,-0.348496917,-6.584525146,99.999999995,2.885854054, 0000069P0000212
-5.140606855,0.,2.926739305,-5.213436247,3.152346573,            0000069P0000213
2.955874235,-5.265334653,10.052385578,2.573709774,-4.58458046,   0000069P0000214
20.241319343,4.675483182,-8.328494942,33.509383922,10.048065093, 0000069P0000215
-17.898740309,50.,4.675483182,-8.328494942,66.490616081,         0000069P0000216
2.573709774,-4.58458046,79.758680655,2.955874235,-5.265334653,   0000069P0000217
89.947614421,2.926739305,-5.213436247,96.847653432,2.885854054,  0000069P0000218
-5.140606855,100.000000002,4.499872159,-2.57041722,0.,           0000069P0000219
4.563623962,-2.606833528,3.152346572,4.609053655,-2.63278388,    0000069P0000220
10.052385579,4.013149917,-2.292391714,20.241319343,7.290416011,  0000069P0000221
-4.164431831,33.509383921,15.667808389,-8.949766361,50.,         0000069P0000222
7.290416011,-4.164431831,66.490616079,4.013149917,-2.292391714,  0000069P0000223
79.758680657,4.609053655,-2.63278388,89.947614421,4.563623962,   0000069P0000224
-2.606833528,96.847653428,4.499872159,-2.57041722,100.,4.5,      0000069P0000225
-1.102182119E-15,0.,4.563753614,-1.117797251E-15,3.152346572,    0000069P0000226
4.609184597,-1.128924633E-15,10.052385579,4.013263931,           0000069P0000227
-9.829661653E-16,20.241319343,7.290623131,-1.785687656E-15,      0000069P0000228
33.509383921,15.66825351,-3.837615302E-15,50.,7.290623131,       0000069P0000229
-1.785687656E-15,66.490616079,4.013263931,-9.829661653E-16,      0000069P0000230
79.758680657,4.609184598,-1.128924633E-15,89.947614421,          0000069P0000231
4.563753614,-1.117797251E-15,96.847653428,4.5,-1.102182119E-15,  0000069P0000232
100.,0.,1.,0.,1.;                                                0000069P0000233
508,4,0,11,4,0,1,0,73,0,11,6,1,1,0,75,0,11,5,1,1,0,77,0,11,6,0,  0000071P0000234
1,0,79;                                                          0000071P0000235
126,1,1,1,0,1,0,0.,0.,6.283185307,6.283185307,1.,1.,0.,1.,0.,0., 0000073P0000236
0.,0.,0.,6.283185307,0.,0.,1.;                                   0000073P0000237
110,0.,0.,0.,1.,0.,0.;                                           0000075P0000238
126,1,1,1,0,1,0,0.,0.,6.283185307,6.283185307,1.,1.,1.,0.,0.,1., 0000077P0000239
1.,0.,0.,6.283185307,0.,0.,1.;                                   0000077P0000240
110,1.,1.,0.,0.,1.,0.;                                           0000079P0000241
S      1G      4D     80P    241                                        T0000001
