                                                                        S0000001
,,31HOpen CASCADE IGES processor 7.5,13HFilename.iges,                  G0000001
16HOpen CASCADE 7.5,31HOpen CASCADE IGES processor 7.5,32,308,15,308,15,G0000002
,1.,6,1HM,1,0.01,15H20240701.161802,1.05515E-05,100.000011,6Hmiguel,,11,G0000003
0,15H20240701.161802,;                                                  G0000004
     186       1       0       0       0       0       0       000000000D0000001
     186       0       0       1       0                               0D0000002
     514       2       0       0       0       0       0       000010000D0000003
     514       0       0       1       1                               0D0000004
     510       3       0       0       0       0       0       000010000D0000005
     510       0       0       1       1                               0D0000006
     128       4       0       0       0       0       0       000010000D0000007
     128       0       0      91       0                               0D0000008
     508      95       0       0       0       0       0       000010000D0000009
     508       0       0       2       1                               0D0000010
     504      97       0       0       0       0       0       000010001D0000011
     504       0       0       1       1                               0D0000012
     100      98       0       0       0       0       0       000010000D0000013
     100       0       0       1       0                               0D0000014
     502      99       0       0       0       0       0       000010000D0000015
     502       0       0       1       1                               0D0000016
     126     100       0       0       0       0       0       000010000D0000017
     126       0       0       8       0                               0D0000018
     100     108       0       0       0       0      21       000010000D0000019
     100       0       0       1       0                               0D0000020
     124     109       0       0       0       0       0       000000000D0000021
     124       0       0       1       0                               0D0000022
     126     110       0       0       0       0       0       000010000D0000023
     126       0       0       2       0                               0D0000024
     110     112       0       0       0       0       0       000010000D0000025
     110       0       0       1       0                               0D0000026
     126     113       0       0       0       0       0       000010000D0000027
     126       0       0       2       0                               0D0000028
     110     115       0       0       0       0       0       000010000D0000029
     110       0       0       1       0                               0D0000030
     510     116       0       0       0       0       0       000010000D0000031
     510       0       0       1       1                               0D0000032
     190     117       0       0       0       0       0       000010000D0000033
     190       0       0       1       1                               0D0000034
     116     118       0       0       0       0       0       000010400D0000035
     116       0       0       1       0                               0D0000036
     123     119       0       0       0       0       0       000010200D0000037
     123       0       0       1       0                               0D0000038
     123     120       0       0       0       0       0       000010200D0000039
     123       0       0       1       0                               0D0000040
     508     121       0       0       0       0       0       000010000D0000041
     508       0       0       1       1                               0D0000042
     510     122       0       0       0       0       0       000010000D0000043
     510       0       0       1       1                               0D0000044
     190     123       0       0       0       0       0       000010000D0000045
     190       0       0       1       1                               0D0000046
     116     124       0       0       0       0       0       000010400D0000047
     116       0       0       1       0                               0D0000048
     123     125       0       0       0       0       0       000010200D0000049
     123       0       0       1       0                               0D0000050
     123     126       0       0       0       0       0       000010200D0000051
     123       0       0       1       0                               0D0000052
     508     127       0       0       0       0       0       000010000D0000053
     508       0       0       1       1                               0D0000054
186,3,0,0;                                                       0000001P0000001
514,3,5,1,31,1,43,0;                                             0000003P0000002
510,7,1,1,9;                                                     0000005P0000003
128,10,11,3,11,0,1,1,0,0,0.,0.,0.,0.,9.629855431E-02,            0000007P0000004
0.192597109,0.293305456,0.5,0.706694544,0.807402891,0.903701446, 0000007P0000005
1.,1.,1.,1.,0.,0.,0.,0.,0.,0.,0.,0.,0.,0.,0.,0.,1.,1.,1.,1.,1.,  0000007P0000006
1.,1.,1.,1.,1.,1.,1.,1.,1.,1.,1.,1.,1.,1.,1.,1.,1.,1.,1.,1.,1.,  0000007P0000007
1.,1.,1.,1.,1.,1.,1.,1.,1.,1.,1.,1.,1.,1.,1.,1.,1.,1.,1.,1.,1.,  0000007P0000008
1.,1.,1.,1.,1.,1.,1.,1.,1.,1.,1.,1.,1.,1.,1.,1.,1.,1.,1.,1.,1.,  0000007P0000009
1.,1.,1.,1.,1.,1.,1.,1.,1.,1.,1.,1.,1.,1.,1.,1.,1.,1.,1.,1.,1.,  0000007P0000010
1.,1.,1.,1.,1.,1.,1.,1.,1.,1.,1.,1.,1.,1.,1.,1.,1.,1.,1.,1.,1.,  0000007P0000011
1.,1.,1.,1.,1.,1.,1.,1.,1.,1.,1.,1.,1.,1.,1.,1.,1.,1.,1.,1.,1.,  0000007P0000012
1.,1.,1.,1.,1.,1.,1.,1.,1.,1.,1.,1.,1.,4.5,0.,0.,4.563753614,0., 0000007P0000013
3.152346572,4.609184597,0.,10.052385579,4.013263931,0.,          0000007P0000014
20.241319343,7.290623131,0.,33.509383921,15.66825351,0.,50.,     0000007P0000015
7.290623131,0.,66.490616079,4.013263931,0.,79.758680657,         0000007P0000016
4.609184598,0.,89.947614421,4.563753614,0.,96.847653428,4.5,0.,  0000007P0000017
100.,4.499872159,2.57041722,0.,4.563623962,2.606833528,          0000007P0000018
3.152346572,4.609053655,2.63278388,10.052385579,4.013149917,     0000007P0000019
2.292391714,20.241319343,7.290416011,4.164431831,33.509383921,   0000007P0000020
15.667808389,8.949766361,50.,7.290416011,4.164431831,            0000007P0000021
66.490616079,4.013149917,2.292391714,79.758680656,4.609053655,   0000007P0000022
2.63278388,89.947614421,4.563623962,2.606833528,96.847653429,    0000007P0000023
4.499872159,2.57041722,100.,2.885854054,5.140606855,0.,          0000007P0000024
2.926739305,5.213436247,3.152346571,2.955874235,5.265334653,     0000007P0000025
10.052385579,2.573709775,4.58458046,20.241319344,4.675483182,    0000007P0000026
8.328494942,33.50938392,10.048065092,17.898740309,49.999999999,  0000007P0000027
4.675483182,8.328494942,66.490616077,2.573709775,4.58458046,     0000007P0000028
79.758680658,2.955874235,5.265334653,89.947614421,2.926739305,   0000007P0000029
5.213436247,96.847653424,2.885854054,5.140606855,99.999999998,   0000007P0000030
-0.348496917,6.584525146,0.,-0.353434237,6.677811207,            0000007P0000031
3.152346575,-0.356952583,6.744287085,10.052385577,-0.310802246,  0000007P0000032
5.872319393,20.241319343,-0.564613264,10.667842518,33.509383923, 0000007P0000033
-1.213408454,22.926224273,50.000000002,-0.564613264,             0000007P0000034
10.667842518,66.490616087,-0.310802246,5.872319393,79.758680654, 0000007P0000035
-0.356952583,6.744287085,89.94761442,-0.353434237,6.677811207,   0000007P0000036
96.84765344,-0.348496917,6.584525146,100.000000006,-4.295340801, 0000007P0000037
5.768643329,0.,-4.356194911,5.850370409,3.152346565,             0000007P0000038
-4.399559702,5.908609329,10.052385582,-3.830741401,5.144686267,  0000007P0000039
20.241319344,-6.959046888,9.346000996,33.509383916,              0000007P0000040
-14.955664131,20.085459128,49.999999996,-6.959046888,            0000007P0000041
9.346000996,66.490616064,-3.830741401,5.144686267,79.758680663,  0000007P0000042
-4.399559702,5.908609329,89.947614424,-4.356194911,5.850370409,  0000007P0000043
96.847653404,-4.295340801,5.768643329,99.999999987,-7.241891481, 0000007P0000044
2.380217777,0.,-7.344490762,2.413939442,3.152346582,-7.41760326, 0000007P0000045
2.437969582,10.052385574,-6.458582638,2.122764923,20.241319342,  0000007P0000046
-11.73286701,3.856282397,33.509383927,-25.215064799,8.287523456, 0000007P0000047
50.000000005,-11.73286701,3.856282397,66.4906161,-6.458582638,   0000007P0000048
2.122764923,79.758680647,-7.41760326,2.437969582,89.947614417,   0000007P0000049
-7.344490762,2.413939442,96.847653463,-7.241891481,2.380217777,  0000007P0000050
100.000000017,-7.241891481,-2.380217777,0.,-7.344490759,         0000007P0000051
-2.413939442,3.152346561,-7.41760326,-2.437969582,10.052385584,  0000007P0000052
-6.458582637,-2.122764923,20.241319345,-11.732867008,            0000007P0000053
-3.856282397,33.509383914,-25.215064807,-8.287523456,            0000007P0000054
49.999999995,-11.732867008,-3.856282397,66.490616058,            0000007P0000055
-6.458582637,-2.122764923,79.758680666,-7.41760326,-2.437969582, 0000007P0000056
89.947614425,-7.344490759,-2.413939442,96.847653393,             0000007P0000057
-7.241891481,-2.380217777,99.999999983,-4.295340801,             0000007P0000058
-5.768643329,0.,-4.356194913,-5.850370409,3.15234658,            0000007P0000059
-4.399559702,-5.908609329,10.052385575,-3.830741402,             0000007P0000060
-5.144686267,20.241319342,-6.959046889,-9.346000996,             0000007P0000061
33.509383926,-14.955664125,-20.085459128,50.000000003,           0000007P0000062
-6.959046889,-9.346000996,66.490616094,-3.830741402,             0000007P0000063
-5.144686267,79.75868065,-4.399559702,-5.908609329,89.947614418, 0000007P0000064
-4.356194913,-5.850370409,96.847653453,-4.295340801,             0000007P0000065
-5.768643329,100.000000011,-0.348496917,-6.584525146,0.,         0000007P0000066
-0.353434236,-6.677811208,3.152346568,-0.356952583,-6.744287085, 0000007P0000067
10.052385581,-0.310802246,-5.872319393,20.241319344,             0000007P0000068
-0.564613263,-10.667842518,33.509383919,-1.213408457,            0000007P0000069
-22.926224272,49.999999999,-0.564613263,-10.667842518,           0000007P0000070
66.490616072,-0.310802246,-5.872319393,79.75868066,-0.356952583, 0000007P0000071
-6.744287085,89.947614423,-0.353434236,-6.677811208,             0000007P0000072
96.847653416,-0.348496917,-6.584525146,99.999999995,2.885854054, 0000007P0000073
-5.140606855,0.,2.926739305,-5.213436247,3.152346573,            0000007P0000074
2.955874235,-5.265334653,10.052385578,2.573709774,-4.58458046,   0000007P0000075
20.241319343,4.675483182,-8.328494942,33.509383922,10.048065093, 0000007P0000076
-17.898740309,50.,4.675483182,-8.328494942,66.490616081,         0000007P0000077
2.573709774,-4.58458046,79.758680655,2.955874235,-5.265334653,   0000007P0000078
89.947614421,2.926739305,-5.213436247,96.847653432,2.885854054,  0000007P0000079
-5.140606855,100.000000002,4.499872159,-2.57041722,0.,           0000007P0000080
4.563623962,-2.606833528,3.152346572,4.609053655,-2.63278388,    0000007P0000081
10.052385579,4.013149917,-2.292391714,20.241319343,7.290416011,  0000007P0000082
-4.164431831,33.509383921,15.667808389,-8.949766361,50.,         0000007P0000083
7.290416011,-4.164431831,66.490616079,4.013149917,-2.292391714,  0000007P0000084
79.758680657,4.609053655,-2.63278388,89.947614421,4.563623962,   0000007P0000085
-2.606833528,96.847653428,4.499872159,-2.57041722,100.,4.5,      0000007P0000086
-1.102182119E-15,0.,4.563753614,-1.117797251E-15,3.152346572,    0000007P0000087
4.609184597,-1.128924633E-15,10.052385579,4.013263931,           0000007P0000088
-9.829661653E-16,20.241319343,7.290623131,-1.785687656E-15,      0000007P0000089
33.509383921,15.66825351,-3.837615302E-15,50.,7.290623131,       0000007P0000090
-1.785687656E-15,66.490616079,4.013263931,-9.829661653E-16,      0000007P0000091
79.758680657,4.609184598,-1.128924633E-15,89.947614421,          0000007P0000092
4.563753614,-1.117797251E-15,96.847653428,4.5,-1.102182119E-15,  0000007P0000093
100.,0.,1.,0.,1.;                                                0000007P0000094
508,4,0,11,1,0,1,0,23,0,11,2,1,1,0,25,0,11,3,1,1,0,27,0,11,2,0,  0000009P0000095
1,0,29;                                                          0000009P0000096
504,3,13,15,1,15,1,17,15,1,15,2,19,15,2,15,2;                    0000011P0000097
100,0.,0.,0.,4.5,0.,4.5,0.;                                      0000013P0000098
502,2,4.5,0.,0.,4.5,0.,100.;                                     0000015P0000099
126,10,3,1,0,1,0,0.,0.,0.,0.,9.629855431E-02,0.192597109,        0000017P0000100
0.293305456,0.5,0.706694544,0.807402891,0.903701446,1.,1.,1.,1., 0000017P0000101
1.,1.,1.,1.,1.,1.,1.,1.,1.,1.,1.,4.5,0.,0.,4.563753614,0.,       0000017P0000102
3.152346572,4.609184597,0.,10.052385579,4.013263931,0.,          0000017P0000103
20.241319343,7.290623131,0.,33.509383921,15.66825351,0.,50.,     0000017P0000104
7.290623131,0.,66.490616079,4.013263931,0.,79.758680657,         0000017P0000105
4.609184598,0.,89.947614421,4.563753614,0.,96.847653428,4.5,0.,  0000017P0000106
100.,0.,1.,0.,-1.,0.;                                            0000017P0000107
100,0.,0.,0.,4.5,0.,4.5,0.;                                      0000019P0000108
124,1.,0.,0.,0.,0.,1.,0.,0.,0.,0.,1.,100.;                       0000021P0000109
126,1,1,1,0,1,0,0.,0.,6.283185307,6.283185307,1.,1.,0.,1.,0.,0., 0000023P0000110
0.,0.,0.,6.283185307,0.,0.,1.;                                   0000023P0000111
110,0.,0.,0.,1.,0.,0.;                                           0000025P0000112
126,1,1,1,0,1,0,0.,0.,6.283185307,6.283185307,1.,1.,1.,0.,0.,1., 0000027P0000113
1.,0.,0.,6.283185307,0.,0.,1.;                                   0000027P0000114
110,1.,1.,0.,0.,1.,0.;                                           0000029P0000115
510,33,1,1,41;                                                   0000031P0000116
190,35,37,39;                                                    0000033P0000117
116,-1.519377925E-16,1.201785651E-16,0.,0;                       0000035P0000118
123,0.,0.,1.;                                                    0000037P0000119
123,1.,0.,-0.;                                                   0000039P0000120
508,1,0,11,1,1,0;                                                0000041P0000121
510,45,1,1,53;                                                   0000043P0000122
190,47,49,51;                                                    0000045P0000123
116,-1.519377925E-16,1.201785651E-16,100.,0;                     0000047P0000124
123,0.,0.,1.;                                                    0000049P0000125
123,1.,0.,-0.;                                                   0000051P0000126
508,1,0,11,3,1,0;                                                0000053P0000127
S      1G      4D     54P    127                                        T0000001
